<?xml version="1.0" encoding="utf-8"?>
<!-- Generator: Adobe Illustrator 15.1.0, SVG Export Plug-In . SVG Version: 6.00 Build 0)  -->
<!DOCTYPE svg PUBLIC "-//W3C//DTD SVG 1.1//EN" "http://www.w3.org/Graphics/SVG/1.1/DTD/svg11.dtd">
<svg version="1.1" id="Layer_1" xmlns="http://www.w3.org/2000/svg" xmlns:xlink="http://www.w3.org/1999/xlink" x="0px" y="0px"
	 width="664px" height="201px" viewBox="0 0 664 201" enable-background="new 0 0 664 201" xml:space="preserve">
<g id="Layer_2" display="none">
	<g id="U2Nngi.tif" display="inline" opacity="0.26">
		
			<image overflow="visible" enable-background="new    " width="448" height="161" id="Layer_0_1_" xlink:href="B2146823.png"  transform="matrix(0.9973 0 0 0.9973 168.4355 4.2539)">
		</image>
	</g>
</g>
<g id="Layer_1_1_">
	<g>
		<path d="M38.836,13.986v3.059h-5.168V31.26h-3.633V17.045h-5.191v-3.059H38.836z"/>
		<path d="M49.856,18.557c0.642,0.273,1.168,0.692,1.581,1.255c0.35,0.477,0.563,0.968,0.642,1.472
			c0.078,0.504,0.117,1.327,0.117,2.469v7.507h-3.41v-7.778c0-0.688-0.116-1.244-0.349-1.666c-0.302-0.594-0.876-0.892-1.721-0.892
			c-0.876,0-1.542,0.295-1.995,0.886c-0.454,0.591-0.681,1.433-0.681,2.528v6.922H40.7V14.045h3.34v6.094
			c0.482-0.742,1.041-1.26,1.674-1.553c0.633-0.293,1.301-0.439,2.001-0.439C48.5,18.146,49.214,18.283,49.856,18.557z"/>
		<path d="M63.66,18.745c0.891,0.399,1.627,1.029,2.207,1.89c0.523,0.759,0.863,1.639,1.018,2.641
			c0.09,0.587,0.126,1.432,0.11,2.535h-9.303c0.052,1.281,0.497,2.18,1.336,2.695c0.51,0.32,1.124,0.48,1.841,0.48
			c0.761,0,1.379-0.195,1.854-0.586c0.259-0.211,0.489-0.504,0.688-0.879h3.41c-0.09,0.758-0.502,1.527-1.238,2.309
			c-1.144,1.242-2.746,1.863-4.806,1.863c-1.7,0-3.2-0.524-4.499-1.572c-1.3-1.047-1.949-2.752-1.949-5.114
			c0-2.213,0.586-3.91,1.76-5.09c1.173-1.181,2.695-1.771,4.567-1.771C61.768,18.146,62.769,18.346,63.66,18.745z M58.664,21.63
			c-0.472,0.486-0.769,1.146-0.89,1.977h5.754c-0.061-0.887-0.357-1.56-0.89-2.019c-0.533-0.459-1.193-0.688-1.981-0.688
			C59.8,20.9,59.135,21.144,58.664,21.63z"/>
		<path d="M74.04,20.982v-2.379h1.781v-3.562h3.305v3.562H81.2v2.379h-2.074v6.75c0,0.523,0.066,0.85,0.199,0.979
			c0.133,0.129,0.539,0.193,1.219,0.193c0.102,0,0.209-0.002,0.322-0.006c0.113-0.004,0.225-0.01,0.334-0.018v2.496l-1.582,0.059
			c-1.578,0.055-2.656-0.219-3.234-0.82c-0.375-0.383-0.562-0.973-0.562-1.771v-7.863H74.04z"/>
		<path d="M90.44,18.188c0.043,0.004,0.139,0.01,0.287,0.018v3.422c-0.211-0.023-0.398-0.039-0.562-0.047s-0.297-0.012-0.398-0.012
			c-1.344,0-2.246,0.438-2.707,1.312c-0.258,0.492-0.387,1.25-0.387,2.273v6.105H83.31V18.486h3.188v2.227
			c0.516-0.852,0.965-1.434,1.348-1.746c0.625-0.523,1.438-0.785,2.438-0.785C90.344,18.182,90.397,18.184,90.44,18.188z"/>
		<path d="M97.743,23.49c0.622-0.078,1.066-0.176,1.334-0.293c0.48-0.203,0.72-0.521,0.72-0.949c0-0.523-0.184-0.885-0.552-1.084
			c-0.369-0.199-0.909-0.299-1.622-0.299c-0.8,0-1.366,0.195-1.699,0.586c-0.238,0.289-0.396,0.68-0.475,1.172h-3.223
			c0.07-1.117,0.384-2.035,0.941-2.754c0.887-1.125,2.409-1.688,4.567-1.688c1.404,0,2.652,0.277,3.743,0.832
			c1.09,0.555,1.636,1.602,1.636,3.141v5.859c0,0.406,0.008,0.898,0.023,1.477c0.023,0.438,0.09,0.734,0.199,0.891
			c0.109,0.157,0.273,0.285,0.492,0.387v0.492h-3.633c-0.102-0.258-0.172-0.5-0.211-0.727c-0.039-0.227-0.07-0.484-0.094-0.773
			c-0.464,0.5-0.998,0.926-1.603,1.277c-0.723,0.414-1.541,0.621-2.452,0.621c-1.163,0-2.124-0.33-2.882-0.99
			c-0.759-0.66-1.138-1.596-1.138-2.807c0-1.57,0.61-2.707,1.83-3.41c0.669-0.383,1.653-0.656,2.952-0.82L97.743,23.49z
			 M99.786,25.049c-0.214,0.133-0.43,0.24-0.647,0.322c-0.218,0.082-0.517,0.158-0.897,0.229l-0.76,0.141
			c-0.713,0.125-1.225,0.277-1.535,0.457c-0.526,0.305-0.789,0.777-0.789,1.418c0,0.57,0.161,0.982,0.482,1.236
			c0.321,0.254,0.712,0.381,1.172,0.381c0.73,0,1.402-0.211,2.017-0.633c0.615-0.422,0.934-1.191,0.958-2.309L99.786,25.049
			L99.786,25.049z"/>
		<path d="M111.317,13.828c0.172,0.012,0.406,0.029,0.703,0.053V16.6c-0.188-0.023-0.502-0.041-0.943-0.053
			c-0.441-0.012-0.746,0.086-0.914,0.293s-0.252,0.436-0.252,0.686s0,0.609,0,1.078h2.191v2.355h-2.191V31.26h-3.316V20.959h-1.875
			v-2.355h1.828v-0.82c0-1.367,0.23-2.309,0.691-2.824c0.484-0.766,1.652-1.148,3.504-1.148
			C110.954,13.811,111.145,13.816,111.317,13.828z"/>
		<path d="M119.309,13.828c0.172,0.012,0.406,0.029,0.703,0.053V16.6c-0.188-0.023-0.502-0.041-0.943-0.053
			c-0.441-0.012-0.746,0.086-0.914,0.293c-0.168,0.207-0.252,0.436-0.252,0.686s0,0.609,0,1.078h2.191v2.355h-2.191V31.26h-3.316
			V20.959h-1.875v-2.355h1.828v-0.82c0-1.367,0.23-2.309,0.691-2.824c0.484-0.766,1.652-1.148,3.504-1.148
			C118.946,13.811,119.137,13.816,119.309,13.828z"/>
		<path d="M125.45,16.963h-3.387v-3.082h3.387V16.963z M122.063,18.486h3.387V31.26h-3.387V18.486z"/>
		<path d="M136.325,23.068c-0.062-0.477-0.223-0.906-0.481-1.289c-0.376-0.516-0.959-0.773-1.75-0.773
			c-1.128,0-1.899,0.559-2.314,1.676c-0.22,0.592-0.329,1.379-0.329,2.361c0,0.935,0.109,1.687,0.329,2.256
			c0.399,1.062,1.151,1.594,2.255,1.594c0.783,0,1.339-0.211,1.668-0.633c0.329-0.422,0.529-0.969,0.599-1.641h3.41
			c-0.078,1.016-0.446,1.977-1.103,2.883c-1.048,1.461-2.601,2.191-4.657,2.191c-2.056,0-3.57-0.609-4.54-1.828
			c-0.97-1.219-1.455-2.799-1.455-4.741c0-2.191,0.536-3.896,1.607-5.115c1.071-1.219,2.549-1.828,4.434-1.828
			c1.604,0,2.915,0.359,3.936,1.078c1.021,0.719,1.625,1.988,1.812,3.809H136.325z"/>
		<path d="M155.473,18.691c0.602,0.34,1.09,0.811,1.465,1.412V14.01h3.387v17.25h-3.246v-1.77c-0.477,0.758-1.02,1.309-1.629,1.652
			c-0.609,0.343-1.367,0.516-2.273,0.516c-1.492,0-2.748-0.604-3.768-1.811s-1.529-2.756-1.529-4.646
			c0-2.18,0.502-3.895,1.506-5.145c1.004-1.25,2.346-1.875,4.025-1.875C154.184,18.182,154.872,18.352,155.473,18.691z
			 M156.293,27.791c0.492-0.703,0.738-1.613,0.738-2.73c0-1.562-0.395-2.68-1.184-3.352c-0.484-0.406-1.047-0.609-1.688-0.609
			c-0.977,0-1.693,0.369-2.15,1.107c-0.457,0.738-0.686,1.654-0.686,2.748c0,1.18,0.232,2.123,0.697,2.83s1.17,1.061,2.115,1.061
			C155.08,28.846,155.801,28.494,156.293,27.791z"/>
		<path d="M174.012,29.697c-1.078,1.331-2.715,1.996-4.91,1.996s-3.832-0.666-4.91-1.996c-1.078-1.331-1.617-2.933-1.617-4.807
			c0-1.842,0.539-3.438,1.617-4.789s2.715-2.026,4.91-2.026s3.832,0.675,4.91,2.026c1.078,1.35,1.617,2.947,1.617,4.789
			C175.629,26.764,175.09,28.366,174.012,29.697z M171.34,27.851c0.523-0.694,0.785-1.681,0.785-2.96
			c0-1.279-0.262-2.264-0.785-2.955s-1.273-1.036-2.25-1.036s-1.729,0.345-2.256,1.036s-0.791,1.675-0.791,2.955
			c0,1.28,0.264,2.266,0.791,2.96s1.279,1.042,2.256,1.042S170.817,28.545,171.34,27.851z"/>
		<path d="M193.958,18.533c0.547,0.219,1.043,0.602,1.488,1.148c0.359,0.445,0.602,0.992,0.727,1.641
			c0.078,0.43,0.117,1.059,0.117,1.887l-0.023,8.051h-3.422v-8.133c0-0.484-0.078-0.883-0.234-1.195
			c-0.297-0.594-0.844-0.891-1.641-0.891c-0.922,0-1.559,0.383-1.91,1.148c-0.18,0.406-0.27,0.895-0.27,1.465v7.605h-3.363v-7.605
			c0-0.758-0.078-1.309-0.234-1.652c-0.281-0.617-0.832-0.926-1.652-0.926c-0.953,0-1.594,0.309-1.922,0.926
			c-0.18,0.352-0.27,0.875-0.27,1.57v7.688h-3.387V18.51h3.246v1.863c0.414-0.664,0.805-1.137,1.172-1.418
			c0.648-0.5,1.488-0.75,2.52-0.75c0.977,0,1.766,0.215,2.367,0.645c0.484,0.398,0.852,0.91,1.102,1.535
			c0.438-0.75,0.98-1.301,1.629-1.652c0.688-0.352,1.453-0.527,2.297-0.527C192.856,18.205,193.411,18.314,193.958,18.533z"/>
		<path d="M204.419,23.49c0.622-0.078,1.066-0.176,1.334-0.293c0.48-0.203,0.72-0.521,0.72-0.949c0-0.523-0.184-0.885-0.552-1.084
			c-0.369-0.199-0.909-0.299-1.622-0.299c-0.8,0-1.366,0.195-1.699,0.586c-0.238,0.289-0.396,0.68-0.475,1.172h-3.223
			c0.07-1.117,0.384-2.035,0.941-2.754c0.887-1.125,2.409-1.688,4.567-1.688c1.404,0,2.652,0.277,3.743,0.832
			c1.09,0.555,1.636,1.602,1.636,3.141v5.859c0,0.406,0.008,0.898,0.023,1.477c0.023,0.438,0.09,0.734,0.199,0.891
			c0.109,0.157,0.273,0.285,0.492,0.387v0.492h-3.633c-0.102-0.258-0.172-0.5-0.211-0.727c-0.039-0.227-0.07-0.484-0.094-0.773
			c-0.464,0.5-0.998,0.926-1.603,1.277c-0.723,0.414-1.541,0.621-2.452,0.621c-1.163,0-2.124-0.33-2.882-0.99
			c-0.759-0.66-1.138-1.596-1.138-2.807c0-1.57,0.61-2.707,1.83-3.41c0.669-0.383,1.653-0.656,2.952-0.82L204.419,23.49z
			 M206.461,25.049c-0.214,0.133-0.43,0.24-0.647,0.322c-0.218,0.082-0.517,0.158-0.897,0.229l-0.76,0.141
			c-0.713,0.125-1.225,0.277-1.535,0.457c-0.526,0.305-0.789,0.777-0.789,1.418c0,0.57,0.161,0.982,0.482,1.236
			s0.712,0.381,1.172,0.381c0.73,0,1.402-0.211,2.017-0.633c0.615-0.422,0.934-1.191,0.958-2.309L206.461,25.049L206.461,25.049z"/>
		<path d="M216.141,16.963h-3.387v-3.082h3.387V16.963z M212.754,18.486h3.387V31.26h-3.387V18.486z"/>
		<path d="M229.676,19.219c0.836,0.691,1.254,1.838,1.254,3.439v8.602h-3.422v-7.77c0-0.672-0.089-1.188-0.268-1.547
			c-0.326-0.656-0.946-0.984-1.861-0.984c-1.125,0-1.896,0.48-2.315,1.441c-0.217,0.508-0.326,1.156-0.326,1.945v6.914h-3.34V18.51
			h3.234v1.863c0.428-0.656,0.833-1.129,1.214-1.418c0.684-0.516,1.552-0.773,2.602-0.773
			C227.764,18.182,228.839,18.527,229.676,19.219z"/>
	</g>
	<g>
		<g>
			<path d="M546.854,71.985c-0.758,0.633-1.841,0.949-3.247,0.949h-2.697v4.658h-2.689V64.638h5.562c1.28,0,2.305,0.334,3.065,1.002
				c0.764,0.668,1.146,1.702,1.146,3.103C547.992,70.271,547.612,71.353,546.854,71.985z M544.788,67.318
				c-0.343-0.287-0.823-0.431-1.44-0.431h-2.438v3.814h2.438c0.617,0,1.099-0.155,1.44-0.466s0.515-0.803,0.515-1.477
				C545.303,68.084,545.131,67.605,544.788,67.318z"/>
			<path d="M555.282,67.789c0.032,0.003,0.104,0.007,0.216,0.013v2.566c-0.158-0.018-0.299-0.029-0.422-0.035
				s-0.224-0.009-0.299-0.009c-1.009,0-1.687,0.328-2.031,0.984c-0.193,0.369-0.289,0.938-0.289,1.705v4.579h-2.523v-9.58h2.392
				v1.67c0.387-0.639,0.725-1.075,1.012-1.31c0.469-0.393,1.078-0.589,1.828-0.589C555.211,67.784,555.25,67.786,555.282,67.789z"/>
			<path d="M564.955,76.421c-0.809,0.998-2.037,1.497-3.684,1.497c-1.647,0-2.873-0.499-3.683-1.497
				c-0.809-0.998-1.213-2.2-1.213-3.605c0-1.381,0.404-2.579,1.213-3.592c0.81-1.013,2.035-1.519,3.683-1.519
				c1.646,0,2.875,0.506,3.684,1.519c0.809,1.013,1.213,2.21,1.213,3.592C566.168,74.221,565.764,75.423,564.955,76.421z
				 M562.951,75.037c0.393-0.521,0.588-1.261,0.588-2.221s-0.195-1.698-0.588-2.216c-0.394-0.518-0.955-0.777-1.688-0.777
				c-0.732,0-1.297,0.259-1.691,0.777c-0.396,0.518-0.594,1.256-0.594,2.216s0.197,1.7,0.594,2.221
				c0.396,0.521,0.96,0.781,1.691,0.781C561.995,75.818,562.559,75.557,562.951,75.037z"/>
			<path d="M576.141,69.164c0.718,0.908,1.074,2.08,1.074,3.516c0,1.488-0.354,2.722-1.06,3.7c-0.707,0.979-1.693,1.468-2.96,1.468
				c-0.795,0-1.435-0.158-1.916-0.475c-0.289-0.188-0.603-0.516-0.938-0.984v1.204h-2.469V64.655h2.504v4.604
				c0.318-0.445,0.67-0.785,1.053-1.02c0.455-0.293,1.032-0.439,1.734-0.439C574.432,67.802,575.424,68.256,576.141,69.164z
				 M574.047,75c0.36-0.521,0.541-1.207,0.541-2.057c0-0.68-0.09-1.242-0.266-1.688c-0.338-0.844-0.958-1.266-1.861-1.266
				c-0.916,0-1.545,0.413-1.889,1.239c-0.178,0.439-0.267,1.008-0.267,1.705c0,0.82,0.185,1.5,0.551,2.039
				c0.365,0.539,0.925,0.809,1.675,0.809C573.182,75.782,573.688,75.521,574.047,75z"/>
			<path d="M581.514,77.593h-2.506V64.638h2.506V77.593z"/>
			<path d="M590.199,68.207c0.668,0.3,1.221,0.772,1.656,1.417c0.392,0.569,0.646,1.229,0.763,1.98
				c0.066,0.44,0.095,1.074,0.083,1.901h-6.979c0.039,0.961,0.373,1.635,1.002,2.021c0.384,0.24,0.845,0.36,1.382,0.36
				c0.57,0,1.034-0.146,1.392-0.438c0.194-0.158,0.366-0.378,0.516-0.659h2.559c-0.068,0.568-0.377,1.146-0.931,1.731
				c-0.856,0.932-2.059,1.397-3.604,1.397c-1.275,0-2.4-0.393-3.375-1.179c-0.975-0.786-1.461-2.064-1.461-3.835
				c0-1.66,0.438-2.932,1.318-3.817c0.881-0.886,2.021-1.329,3.427-1.329C588.779,67.758,589.531,67.908,590.199,68.207z
				 M586.452,70.371c-0.354,0.365-0.577,0.859-0.667,1.483h4.313c-0.045-0.665-0.268-1.169-0.667-1.514
				c-0.398-0.345-0.895-0.517-1.484-0.517C587.305,69.823,586.806,70.006,586.452,70.371z"/>
			<path d="M605.92,68.048c0.41,0.164,0.783,0.451,1.117,0.861c0.27,0.334,0.451,0.744,0.545,1.23
				c0.059,0.322,0.088,0.794,0.088,1.415l-0.018,6.038h-2.566v-6.1c0-0.363-0.059-0.662-0.176-0.896
				c-0.224-0.445-0.633-0.668-1.23-0.668c-0.69,0-1.17,0.287-1.434,0.861c-0.135,0.305-0.201,0.671-0.201,1.099v5.704h-2.523v-5.704
				c0-0.568-0.059-0.981-0.176-1.239c-0.211-0.463-0.623-0.694-1.237-0.694c-0.716,0-1.195,0.231-1.441,0.694
				c-0.135,0.264-0.203,0.656-0.203,1.178v5.766h-2.539V68.03h2.435v1.396c0.311-0.498,0.604-0.853,0.879-1.062
				c0.485-0.375,1.117-0.562,1.891-0.562c0.732,0,1.324,0.161,1.775,0.483c0.362,0.299,0.639,0.683,0.826,1.151
				c0.327-0.562,0.733-0.976,1.221-1.239c0.516-0.264,1.09-0.396,1.723-0.396C605.094,67.802,605.51,67.884,605.92,68.048z"/>
			<path d="M611.914,74.534c0.054,0.445,0.168,0.762,0.345,0.949c0.312,0.334,0.891,0.501,1.731,0.501
				c0.494,0,0.887-0.073,1.179-0.22s0.438-0.366,0.438-0.659c0-0.281-0.117-0.495-0.353-0.642c-0.234-0.147-1.107-0.398-2.621-0.756
				c-1.088-0.27-1.854-0.606-2.301-1.011c-0.445-0.398-0.668-0.973-0.668-1.723c0-0.885,0.348-1.645,1.045-2.281
				c0.695-0.636,1.674-0.954,2.938-0.954c1.197,0,2.175,0.239,2.929,0.716s1.188,1.302,1.299,2.474h-2.504
				c-0.035-0.322-0.127-0.577-0.273-0.765c-0.275-0.34-0.746-0.51-1.409-0.51c-0.548,0-0.937,0.085-1.169,0.255
				c-0.231,0.17-0.348,0.369-0.348,0.598c0,0.287,0.123,0.495,0.369,0.624c0.247,0.135,1.119,0.366,2.615,0.694
				c0.998,0.234,1.746,0.589,2.244,1.063c0.491,0.48,0.737,1.081,0.737,1.802c0,0.949-0.354,1.724-1.061,2.325
				s-1.801,0.901-3.281,0.901c-1.508,0-2.623-0.318-3.342-0.954c-0.719-0.636-1.078-1.446-1.078-2.43h2.539V74.534z"/>
		</g>
		<g>
			<path d="M536.908,98.898v-1.189h0.891v-1.781h1.652v1.781h1.037v1.189h-1.037v3.375c0,0.262,0.033,0.425,0.1,0.488
				c0.067,0.064,0.271,0.098,0.609,0.098c0.051,0,0.104-0.002,0.162-0.004c0.057-0.002,0.11-0.004,0.166-0.008v1.248l-0.791,0.028
				c-0.789,0.026-1.328-0.108-1.617-0.41c-0.188-0.19-0.281-0.485-0.281-0.885v-3.932L536.908,98.898L536.908,98.898z"/>
			<path d="M543.277,96.889h-1.693v-1.541h1.693V96.889z M541.584,97.65h1.693v6.387h-1.693V97.65z"/>
			<path d="M552.863,97.674c0.272,0.109,0.521,0.301,0.744,0.574c0.18,0.223,0.301,0.496,0.362,0.82
				c0.039,0.215,0.06,0.529,0.06,0.943l-0.013,4.025h-1.711V99.97c0-0.242-0.039-0.441-0.116-0.598
				c-0.148-0.297-0.423-0.445-0.82-0.445c-0.461,0-0.779,0.191-0.955,0.574c-0.09,0.203-0.135,0.447-0.135,0.732v3.803h-1.683
				v-3.803c0-0.379-0.039-0.654-0.117-0.826c-0.141-0.309-0.416-0.463-0.825-0.463c-0.478,0-0.797,0.154-0.961,0.463
				c-0.091,0.176-0.136,0.438-0.136,0.785v3.844h-1.692v-6.375h1.623v0.932c0.207-0.332,0.401-0.568,0.586-0.709
				c0.323-0.25,0.744-0.375,1.26-0.375c0.488,0,0.883,0.107,1.184,0.322c0.242,0.199,0.427,0.455,0.552,0.768
				c0.219-0.375,0.489-0.65,0.813-0.826c0.344-0.176,0.728-0.264,1.148-0.264C552.312,97.51,552.59,97.564,552.863,97.674z"/>
			<path d="M559.727,97.78c0.445,0.2,0.813,0.515,1.104,0.945c0.262,0.379,0.432,0.819,0.51,1.32
				c0.045,0.293,0.062,0.716,0.056,1.268h-4.652c0.025,0.642,0.249,1.09,0.668,1.349c0.256,0.159,0.562,0.239,0.922,0.239
				c0.38,0,0.689-0.098,0.926-0.293c0.131-0.104,0.245-0.252,0.345-0.438h1.704c-0.045,0.379-0.25,0.765-0.618,1.154
				c-0.572,0.62-1.373,0.932-2.402,0.932c-0.85,0-1.6-0.262-2.25-0.786c-0.649-0.523-0.975-1.376-0.975-2.557
				c0-1.106,0.294-1.955,0.881-2.545c0.586-0.59,1.348-0.886,2.283-0.886C558.781,97.48,559.281,97.58,559.727,97.78z
				 M557.229,99.222c-0.235,0.244-0.385,0.573-0.444,0.989h2.877c-0.029-0.443-0.178-0.78-0.444-1.009
				c-0.266-0.229-0.597-0.344-0.99-0.344C557.797,98.857,557.465,98.979,557.229,99.222z"/>
		</g>
		<g>
			<circle fill="none" stroke="#000000" stroke-width="3" stroke-miterlimit="10" cx="557.531" cy="143.724" r="20.745"/>
			<line fill="none" stroke="#000000" stroke-linecap="round" stroke-miterlimit="10" x1="556.5" y1="144" x2="556.5" y2="127"/>
			
				<line fill="none" stroke="#000000" stroke-width="2" stroke-linecap="round" stroke-miterlimit="10" x1="557.092" y1="143.287" x2="564.516" y2="136.419"/>
		</g>
		<g>
			<path d="M596.934,101.998c0.035,0.297,0.112,0.508,0.23,0.633c0.207,0.223,0.592,0.334,1.154,0.334
				c0.328,0,0.591-0.049,0.784-0.146c0.194-0.096,0.291-0.243,0.291-0.438c0-0.188-0.077-0.33-0.233-0.428
				c-0.156-0.099-0.738-0.267-1.747-0.504c-0.727-0.181-1.237-0.404-1.534-0.674c-0.297-0.266-0.445-0.648-0.445-1.148
				c0-0.59,0.232-1.097,0.696-1.521s1.116-0.636,1.958-0.636c0.799,0,1.449,0.159,1.953,0.478c0.502,0.318,0.791,0.868,0.865,1.649
				h-1.67c-0.023-0.215-0.084-0.385-0.183-0.51c-0.184-0.227-0.498-0.34-0.938-0.34c-0.365,0-0.625,0.057-0.779,0.17
				c-0.154,0.113-0.232,0.246-0.232,0.398c0,0.191,0.082,0.33,0.248,0.416c0.164,0.09,0.744,0.244,1.742,0.463
				c0.666,0.156,1.164,0.393,1.496,0.709c0.328,0.321,0.492,0.721,0.492,1.202c0,0.633-0.235,1.148-0.707,1.549
				c-0.472,0.402-1.201,0.602-2.188,0.602c-1.006,0-1.747-0.212-2.228-0.636c-0.48-0.425-0.72-0.964-0.72-1.62H596.934z"/>
			<path d="M604.843,100.152c0.312-0.039,0.532-0.088,0.667-0.146c0.24-0.102,0.359-0.26,0.359-0.475
				c0-0.262-0.092-0.442-0.275-0.542c-0.185-0.1-0.455-0.149-0.811-0.149c-0.4,0-0.685,0.098-0.851,0.293
				c-0.118,0.145-0.197,0.34-0.237,0.586h-1.611c0.035-0.559,0.193-1.018,0.471-1.377c0.443-0.562,1.205-0.844,2.283-0.844
				c0.703,0,1.326,0.139,1.872,0.416s0.817,0.801,0.817,1.57v2.93c0,0.203,0.004,0.449,0.012,0.738
				c0.012,0.219,0.045,0.367,0.1,0.445c0.056,0.077,0.138,0.143,0.246,0.192v0.246h-1.815c-0.052-0.129-0.086-0.25-0.105-0.363
				c-0.019-0.112-0.035-0.241-0.047-0.387c-0.23,0.25-0.498,0.463-0.801,0.639c-0.361,0.207-0.771,0.312-1.228,0.312
				c-0.58,0-1.062-0.166-1.439-0.495c-0.38-0.33-0.569-0.798-0.569-1.403c0-0.785,0.307-1.354,0.916-1.705
				c0.334-0.191,0.826-0.328,1.476-0.41L604.843,100.152z M605.863,100.932c-0.106,0.066-0.215,0.12-0.323,0.161
				s-0.259,0.079-0.448,0.114l-0.381,0.07c-0.354,0.062-0.611,0.139-0.768,0.229c-0.264,0.152-0.396,0.389-0.396,0.709
				c0,0.285,0.08,0.491,0.242,0.618c0.16,0.127,0.354,0.19,0.586,0.19c0.364,0,0.7-0.105,1.008-0.316
				c0.309-0.211,0.467-0.596,0.479-1.154V100.932z"/>
			<path d="M611.629,95.321c0.086,0.006,0.203,0.015,0.353,0.026v1.359c-0.095-0.012-0.25-0.021-0.472-0.026
				c-0.221-0.005-0.373,0.043-0.457,0.146s-0.127,0.218-0.127,0.343s0,0.305,0,0.539h1.097v1.178h-1.097v5.15h-1.658v-5.15h-0.938
				v-1.178h0.914v-0.41c0-0.684,0.115-1.154,0.346-1.412c0.242-0.383,0.826-0.574,1.752-0.574
				C611.447,95.312,611.543,95.315,611.629,95.321z"/>
			<path d="M617.145,97.78c0.445,0.2,0.813,0.515,1.104,0.945c0.262,0.379,0.432,0.819,0.51,1.32
				c0.045,0.293,0.062,0.716,0.056,1.268h-4.652c0.026,0.642,0.249,1.09,0.668,1.349c0.256,0.159,0.562,0.239,0.922,0.239
				c0.38,0,0.689-0.098,0.926-0.293c0.131-0.104,0.245-0.252,0.345-0.438h1.705c-0.046,0.379-0.251,0.765-0.619,1.154
				c-0.572,0.62-1.373,0.932-2.402,0.932c-0.85,0-1.6-0.262-2.25-0.786c-0.649-0.523-0.975-1.376-0.975-2.557
				c0-1.106,0.294-1.955,0.881-2.545c0.586-0.59,1.348-0.886,2.283-0.886C616.199,97.48,616.699,97.58,617.145,97.78z
				 M614.646,99.222c-0.236,0.244-0.386,0.573-0.445,0.989h2.877c-0.029-0.443-0.178-0.78-0.444-1.009
				c-0.266-0.229-0.597-0.344-0.989-0.344C615.215,98.857,614.883,98.979,614.646,99.222z"/>
			<path d="M619,98.898v-1.189h0.891v-1.781h1.652v1.781h1.037v1.189h-1.037v3.375c0,0.262,0.033,0.425,0.1,0.488
				c0.067,0.064,0.271,0.098,0.609,0.098c0.051,0,0.105-0.002,0.162-0.004s0.111-0.004,0.166-0.008v1.248l-0.791,0.028
				c-0.789,0.026-1.328-0.108-1.617-0.41c-0.188-0.19-0.281-0.485-0.281-0.885v-3.932L619,98.898L619,98.898z"/>
			<path d="M623.904,105.262l0.211,0.012c0.164,0.009,0.319,0.002,0.469-0.018s0.273-0.064,0.375-0.135
				c0.098-0.066,0.189-0.205,0.273-0.416s0.118-0.34,0.106-0.387l-2.346-6.668h1.856l1.396,4.711l1.317-4.711h1.775l-2.188,6.282
				c-0.425,1.211-0.759,1.961-1.006,2.252s-0.738,0.438-1.478,0.438c-0.149,0-0.27-0.001-0.358-0.003s-0.226-0.009-0.404-0.021
				L623.904,105.262L623.904,105.262z"/>
		</g>
		<g>
			
				<polygon fill="none" stroke="#000000" stroke-width="2" stroke-linecap="round" stroke-linejoin="round" stroke-miterlimit="10" points="
				594.859,167 620.541,122.52 646.223,167 			"/>
			
				<line fill="none" stroke="#000000" stroke-width="4" stroke-linecap="round" stroke-miterlimit="10" x1="620" y1="137" x2="620" y2="154"/>
			
				<circle fill="none" stroke="#000000" stroke-width="2" stroke-linecap="round" stroke-miterlimit="10" cx="619.541" cy="159.647" r="0.938"/>
		</g>
	</g>
	<g>
		<g>
			<path d="M302.531,64.638v2.294h-3.876v10.661h-2.725V66.932h-3.894v-2.294H302.531z"/>
			<path d="M306.378,71.766c0.466-0.059,0.8-0.132,1-0.22c0.36-0.152,0.54-0.39,0.54-0.712c0-0.393-0.138-0.664-0.415-0.813
				c-0.276-0.149-0.681-0.224-1.216-0.224c-0.6,0-1.024,0.146-1.274,0.439c-0.178,0.217-0.297,0.51-0.356,0.879h-2.417
				c0.053-0.838,0.288-1.526,0.706-2.065c0.665-0.844,1.807-1.266,3.425-1.266c1.053,0,1.989,0.208,2.807,0.624
				c0.818,0.416,1.227,1.201,1.227,2.355v4.395c0,0.305,0.006,0.674,0.018,1.107c0.018,0.328,0.067,0.551,0.149,0.668
				c0.082,0.117,0.205,0.214,0.369,0.29v0.369h-2.725c-0.076-0.193-0.129-0.375-0.158-0.545c-0.029-0.17-0.053-0.363-0.07-0.58
				c-0.348,0.375-0.749,0.694-1.202,0.958c-0.542,0.311-1.155,0.466-1.839,0.466c-0.873,0-1.593-0.248-2.162-0.743
				c-0.569-0.495-0.853-1.197-0.853-2.105c0-1.178,0.458-2.03,1.373-2.558c0.501-0.287,1.239-0.492,2.213-0.615L306.378,71.766z
				 M307.91,72.935c-0.161,0.1-0.322,0.18-0.486,0.242c-0.163,0.062-0.387,0.119-0.672,0.171l-0.57,0.105
				c-0.535,0.094-0.918,0.208-1.151,0.343c-0.395,0.229-0.592,0.583-0.592,1.063c0,0.428,0.121,0.737,0.361,0.927
				c0.241,0.19,0.534,0.286,0.879,0.286c0.547,0,1.051-0.158,1.512-0.475c0.461-0.316,0.701-0.894,0.719-1.731V72.935L307.91,72.935
				z"/>
			<path d="M314.537,74.534c0.053,0.445,0.168,0.762,0.344,0.949c0.312,0.334,0.889,0.501,1.731,0.501
				c0.495,0,0.888-0.073,1.179-0.22s0.437-0.366,0.437-0.659c0-0.281-0.117-0.495-0.352-0.642s-1.108-0.398-2.621-0.756
				c-1.088-0.27-1.855-0.606-2.301-1.011c-0.445-0.398-0.668-0.973-0.668-1.723c0-0.885,0.348-1.645,1.044-2.281
				c0.696-0.636,1.675-0.954,2.937-0.954c1.198,0,2.174,0.239,2.929,0.716c0.755,0.477,1.188,1.302,1.299,2.474h-2.505
				c-0.035-0.322-0.126-0.577-0.273-0.765c-0.276-0.34-0.747-0.51-1.411-0.51c-0.546,0-0.936,0.085-1.167,0.255
				c-0.231,0.17-0.348,0.369-0.348,0.598c0,0.287,0.124,0.495,0.37,0.624c0.247,0.135,1.119,0.366,2.615,0.694
				c0.998,0.234,1.746,0.589,2.244,1.063c0.492,0.48,0.738,1.081,0.738,1.802c0,0.949-0.354,1.724-1.062,2.325
				c-0.707,0.601-1.801,0.901-3.28,0.901c-1.509,0-2.623-0.318-3.342-0.954c-0.72-0.636-1.079-1.446-1.079-2.43h2.542V74.534z"/>
			<path d="M322.579,64.682h2.461v6.989l3.159-3.614h3.115l-3.434,3.569l3.567,5.967h-3.048l-2.321-4.093l-1.038,1.079v3.015h-2.461
				V64.682L322.579,64.682z"/>
			<path d="M334.559,74.534c0.053,0.445,0.168,0.762,0.344,0.949c0.312,0.334,0.889,0.501,1.73,0.501c0.495,0,0.889-0.073,1.18-0.22
				s0.437-0.366,0.437-0.659c0-0.281-0.117-0.495-0.353-0.642c-0.234-0.147-1.107-0.398-2.621-0.756
				c-1.088-0.27-1.854-0.606-2.301-1.011c-0.445-0.398-0.667-0.973-0.667-1.723c0-0.885,0.347-1.645,1.044-2.281
				c0.695-0.636,1.674-0.954,2.937-0.954c1.198,0,2.174,0.239,2.929,0.716c0.756,0.477,1.188,1.302,1.299,2.474h-2.504
				c-0.035-0.322-0.127-0.577-0.273-0.765c-0.276-0.34-0.747-0.51-1.411-0.51c-0.546,0-0.937,0.085-1.167,0.255
				c-0.23,0.17-0.348,0.369-0.348,0.598c0,0.287,0.123,0.495,0.369,0.624c0.248,0.135,1.119,0.366,2.615,0.694
				c0.998,0.234,1.746,0.589,2.244,1.063c0.492,0.48,0.738,1.081,0.738,1.802c0,0.949-0.354,1.724-1.062,2.325
				c-0.707,0.601-1.801,0.901-3.279,0.901c-1.51,0-2.623-0.318-3.343-0.954c-0.72-0.636-1.079-1.446-1.079-2.43h2.542V74.534z"/>
		</g>
		<g>
			<path d="M295.913,97.753c0.301,0.17,0.545,0.405,0.732,0.706v-3.047h1.693v8.625h-1.623v-0.885
				c-0.238,0.379-0.51,0.654-0.814,0.826c-0.304,0.172-0.684,0.258-1.137,0.258c-0.746,0-1.374-0.303-1.884-0.905
				c-0.51-0.603-0.765-1.378-0.765-2.323c0-1.09,0.251-1.947,0.753-2.572s1.173-0.938,2.013-0.938
				C295.268,97.498,295.612,97.583,295.913,97.753z M296.323,102.303c0.246-0.352,0.369-0.807,0.369-1.365
				c0-0.781-0.197-1.34-0.592-1.676c-0.242-0.203-0.523-0.305-0.844-0.305c-0.488,0-0.847,0.185-1.075,0.554
				c-0.228,0.369-0.343,0.827-0.343,1.374c0,0.59,0.116,1.062,0.349,1.415s0.585,0.53,1.058,0.53
				C295.718,102.83,296.077,102.654,296.323,102.303z"/>
			<path d="M303.404,97.501c0.021,0.002,0.069,0.005,0.144,0.009v1.711c-0.105-0.012-0.199-0.02-0.281-0.023
				c-0.082-0.003-0.148-0.006-0.199-0.006c-0.672,0-1.123,0.219-1.354,0.656c-0.129,0.246-0.193,0.625-0.193,1.137v3.053h-1.682
				V97.65h1.594v1.113c0.258-0.426,0.482-0.717,0.674-0.873c0.312-0.262,0.719-0.393,1.219-0.393
				C303.356,97.498,303.382,97.499,303.404,97.501z"/>
			<path d="M306.243,96.889h-1.693v-1.541h1.693V96.889z M304.549,97.65h1.693v6.387h-1.693V97.65z"/>
			<path d="M311.794,97.65h1.793l-2.306,6.387h-1.761l-2.291-6.387h1.875l1.33,4.711L311.794,97.65z"/>
			<path d="M316.25,96.889h-1.693v-1.541h1.693V96.889z M314.557,97.65h1.693v6.387h-1.693V97.65z"/>
			<path d="M323.018,98.017c0.418,0.346,0.627,0.919,0.627,1.72v4.301h-1.711v-3.885c0-0.336-0.044-0.594-0.134-0.773
				c-0.163-0.328-0.473-0.492-0.931-0.492c-0.562,0-0.948,0.24-1.157,0.721c-0.109,0.254-0.163,0.578-0.163,0.973v3.457h-1.67
				v-6.375h1.617v0.932c0.214-0.328,0.416-0.564,0.607-0.709c0.342-0.258,0.776-0.387,1.301-0.387
				C322.062,97.498,322.6,97.671,323.018,98.017z"/>
			<path d="M328.357,97.645c0.405,0.168,0.733,0.477,0.983,0.926v-0.92h1.629v6.059c0,0.824-0.139,1.444-0.416,1.863
				c-0.477,0.719-1.391,1.077-2.742,1.077c-0.816,0-1.482-0.159-1.998-0.479c-0.516-0.319-0.801-0.799-0.855-1.437h1.816
				c0.047,0.195,0.123,0.336,0.229,0.423c0.18,0.151,0.482,0.229,0.908,0.229c0.602,0,1.004-0.2,1.207-0.604
				c0.133-0.259,0.199-0.691,0.199-1.302v-0.41c-0.16,0.273-0.332,0.479-0.516,0.615c-0.332,0.254-0.764,0.381-1.295,0.381
				c-0.82,0-1.476-0.287-1.966-0.863c-0.49-0.576-0.735-1.355-0.735-2.341c0-0.949,0.236-1.747,0.708-2.394
				c0.472-0.647,1.141-0.97,2.007-0.97C327.84,97.498,328.119,97.547,328.357,97.645z M328.926,102.225
				c0.269-0.295,0.403-0.766,0.403-1.41c0-0.605-0.127-1.066-0.382-1.383c-0.255-0.317-0.596-0.475-1.024-0.475
				c-0.583,0-0.986,0.275-1.208,0.826c-0.117,0.293-0.175,0.654-0.175,1.084c0,0.371,0.062,0.701,0.187,0.99
				c0.226,0.539,0.63,0.809,1.214,0.809C328.329,102.666,328.658,102.52,328.926,102.225z"/>
		</g>
		<g>
			<g>
				
					<line fill="none" stroke="#000000" stroke-width="2" stroke-miterlimit="10" x1="291.747" y1="172.816" x2="308.912" y2="122.979"/>
				
					<line fill="none" stroke="#000000" stroke-width="2" stroke-miterlimit="10" x1="343.243" y1="172.816" x2="326.078" y2="122.979"/>
			</g>
			<line fill="none" stroke="#000000" stroke-width="2" stroke-miterlimit="10" x1="317" y1="126.48" x2="317" y2="134.594"/>
			<line fill="none" stroke="#000000" stroke-width="2" stroke-miterlimit="10" x1="317" y1="140.389" x2="317" y2="150.819"/>
			<line fill="none" stroke="#000000" stroke-width="2" stroke-miterlimit="10" x1="317" y1="157.773" x2="317" y2="174"/>
			<line fill="none" stroke="#000000" stroke-width="3" stroke-miterlimit="10" x1="292" y1="123.583" x2="343" y2="123.583"/>
		</g>
		<g>
			<path d="M374.136,98.336c0.521,0.551,0.781,1.359,0.781,2.426c0,1.125-0.254,1.982-0.765,2.572
				c-0.51,0.59-1.164,0.885-1.967,0.885c-0.511,0-0.936-0.127-1.273-0.381c-0.186-0.141-0.366-0.346-0.542-0.615v3.328h-1.652v-8.9
				h1.601v0.943c0.181-0.277,0.373-0.496,0.578-0.656c0.373-0.285,0.816-0.428,1.332-0.428
				C372.979,97.51,373.615,97.785,374.136,98.336z M372.854,99.537c-0.227-0.379-0.595-0.568-1.104-0.568
				c-0.611,0-1.032,0.287-1.261,0.861c-0.119,0.305-0.179,0.691-0.179,1.16c0,0.742,0.199,1.264,0.598,1.564
				c0.236,0.176,0.517,0.264,0.841,0.264c0.47,0,0.828-0.18,1.075-0.539c0.246-0.359,0.369-0.838,0.369-1.437
				C373.195,100.352,373.082,99.916,372.854,99.537z"/>
			<path d="M377.8,104.037h-1.67V95.4h1.67V104.037z"/>
			<path d="M381.959,100.152c0.311-0.039,0.533-0.088,0.667-0.146c0.24-0.102,0.36-0.26,0.36-0.475c0-0.262-0.092-0.442-0.276-0.542
				c-0.185-0.1-0.454-0.149-0.812-0.149c-0.399,0-0.683,0.098-0.849,0.293c-0.118,0.145-0.198,0.34-0.237,0.586h-1.611
				c0.035-0.559,0.191-1.018,0.471-1.377c0.443-0.562,1.205-0.844,2.283-0.844c0.702,0,1.326,0.139,1.872,0.416
				s0.817,0.801,0.817,1.57v2.93c0,0.203,0.004,0.449,0.013,0.738c0.012,0.219,0.045,0.367,0.1,0.445
				c0.056,0.077,0.138,0.143,0.246,0.192v0.246h-1.815c-0.052-0.129-0.086-0.25-0.105-0.363c-0.02-0.112-0.035-0.241-0.047-0.387
				c-0.232,0.25-0.499,0.463-0.803,0.639c-0.36,0.207-0.77,0.312-1.226,0.312c-0.582,0-1.062-0.166-1.44-0.495
				c-0.379-0.33-0.569-0.798-0.569-1.403c0-0.785,0.305-1.354,0.915-1.705c0.334-0.191,0.826-0.328,1.477-0.41L381.959,100.152z
				 M382.98,100.932c-0.107,0.066-0.215,0.12-0.324,0.161s-0.258,0.079-0.449,0.114l-0.38,0.07
				c-0.356,0.062-0.612,0.139-0.769,0.229c-0.263,0.152-0.395,0.389-0.395,0.709c0,0.285,0.08,0.491,0.24,0.618
				s0.355,0.19,0.587,0.19c0.364,0,0.7-0.105,1.008-0.316s0.467-0.596,0.479-1.154v-0.621H382.98z"/>
			<path d="M391.253,98.017c0.418,0.346,0.627,0.919,0.627,1.72v4.301h-1.711v-3.885c0-0.336-0.044-0.594-0.134-0.773
				c-0.163-0.328-0.473-0.492-0.932-0.492c-0.562,0-0.947,0.24-1.156,0.721c-0.109,0.254-0.163,0.578-0.163,0.973v3.457h-1.671
				v-6.375h1.617v0.932c0.215-0.328,0.416-0.564,0.607-0.709c0.342-0.258,0.775-0.387,1.301-0.387
				C390.297,97.498,390.835,97.671,391.253,98.017z"/>
			<path d="M398.583,98.017c0.418,0.346,0.627,0.919,0.627,1.72v4.301h-1.71v-3.885c0-0.336-0.044-0.594-0.134-0.773
				c-0.163-0.328-0.474-0.492-0.932-0.492c-0.562,0-0.948,0.24-1.157,0.721c-0.108,0.254-0.162,0.578-0.162,0.973v3.457h-1.67
				v-6.375h1.617v0.932c0.213-0.328,0.416-0.564,0.606-0.709c0.342-0.258,0.776-0.387,1.301-0.387
				C397.627,97.498,398.165,97.671,398.583,98.017z"/>
			<path d="M402.48,96.889h-1.694v-1.541h1.694V96.889z M400.787,97.65h1.694v6.387h-1.694V97.65z"/>
			<path d="M409.247,98.017c0.419,0.346,0.628,0.919,0.628,1.72v4.301h-1.711v-3.885c0-0.336-0.045-0.594-0.135-0.773
				c-0.162-0.328-0.474-0.492-0.931-0.492c-0.562,0-0.948,0.24-1.157,0.721c-0.108,0.254-0.162,0.578-0.162,0.973v3.457h-1.67
				v-6.375h1.616v0.932c0.214-0.328,0.416-0.564,0.606-0.709c0.343-0.258,0.776-0.387,1.302-0.387
				C408.291,97.498,408.829,97.671,409.247,98.017z"/>
			<path d="M414.587,97.645c0.405,0.168,0.733,0.477,0.983,0.926v-0.92h1.629v6.059c0,0.824-0.14,1.444-0.416,1.863
				c-0.478,0.719-1.392,1.077-2.742,1.077c-0.816,0-1.482-0.159-1.998-0.479c-0.516-0.319-0.801-0.799-0.854-1.437h1.815
				c0.047,0.195,0.123,0.336,0.229,0.423c0.18,0.151,0.481,0.229,0.907,0.229c0.603,0,1.004-0.2,1.207-0.604
				c0.134-0.259,0.199-0.691,0.199-1.302v-0.41c-0.16,0.273-0.332,0.479-0.516,0.615c-0.332,0.254-0.765,0.381-1.295,0.381
				c-0.82,0-1.478-0.287-1.968-0.863c-0.489-0.576-0.733-1.355-0.733-2.341c0-0.949,0.234-1.747,0.707-2.394
				c0.473-0.646,1.142-0.97,2.008-0.97C414.07,97.498,414.349,97.547,414.587,97.645z M415.155,102.225
				c0.269-0.295,0.402-0.766,0.402-1.41c0-0.605-0.128-1.066-0.383-1.383s-0.596-0.475-1.022-0.475
				c-0.584,0-0.986,0.275-1.209,0.826c-0.116,0.293-0.175,0.654-0.175,1.084c0,0.371,0.062,0.701,0.187,0.99
				c0.227,0.539,0.631,0.809,1.215,0.809C414.559,102.666,414.887,102.52,415.155,102.225z"/>
		</g>
		<g>
			<line fill="none" stroke="#000000" stroke-miterlimit="10" x1="368" y1="136.5" x2="421" y2="136.5"/>
			<line fill="none" stroke="#000000" stroke-miterlimit="10" x1="368" y1="156.5" x2="421" y2="156.5"/>
			<g>
				<g>
					<g>
						<path fill="none" stroke="#000000" stroke-width="3" stroke-miterlimit="10" d="M372.564,132.635c0-8.316,0-9.619,4.811-9.656
							"/>
						<g>
							<path d="M377.018,123.011c-0.93-0.952-1.355-2.815-1.377-4.106c1.27,1.748,2.926,3.277,4.943,4.15
								c-2.037,0.786-3.658,2.369-5.041,4.029C375.67,125.704,376.027,124.031,377.018,123.011z"/>
						</g>
					</g>
				</g>
				<g>
					<line fill="none" stroke="#000000" stroke-width="4" stroke-miterlimit="10" x1="386" y1="126" x2="417" y2="126"/>
					<line fill="none" stroke="#000000" stroke-width="4" stroke-miterlimit="10" x1="386" y1="132" x2="408" y2="132"/>
				</g>
			</g>
			<g>
				<g>
					<g>
						<path fill="none" stroke="#000000" stroke-width="3" stroke-miterlimit="10" d="M379.766,152.454c0-8.317,0-9.62-4.809-9.656"
							/>
						<g>
							<path d="M375.314,142.83c0.953,0.929,1.422,2.784,1.476,4.072c-1.31-1.717-3.004-3.207-5.041-4.029
								c2.017-0.835,3.601-2.457,4.942-4.15C376.598,140.105,376.279,141.786,375.314,142.83z"/>
						</g>
					</g>
				</g>
				<g>
					<line fill="none" stroke="#000000" stroke-width="4" stroke-miterlimit="10" x1="386" y1="145" x2="417" y2="145"/>
					<line fill="none" stroke="#000000" stroke-width="4" stroke-miterlimit="10" x1="386" y1="152" x2="408" y2="152"/>
				</g>
			</g>
			<g>
				<g>
					<g>
						<path fill="none" stroke="#000000" stroke-width="3" stroke-miterlimit="10" d="M371.749,172.609c0-8.316,0-9.619,4.812-9.655
							"/>
						<g>
							<path d="M376.202,162.984c-0.929-0.951-1.354-2.816-1.376-4.106c1.268,1.748,2.926,3.279,4.941,4.149
								c-2.037,0.787-3.658,2.371-5.041,4.031C374.854,165.678,375.212,164.005,376.202,162.984z"/>
						</g>
					</g>
				</g>
				<g>
					<line fill="none" stroke="#000000" stroke-width="4" stroke-miterlimit="10" x1="386" y1="165" x2="417" y2="165"/>
					<line fill="none" stroke="#000000" stroke-width="4" stroke-miterlimit="10" x1="386" y1="172" x2="408" y2="172"/>
				</g>
			</g>
		</g>
	</g>
</g>
<g id="Layer_3">
	<g>
		<g>
			<path d="M29.533,64.638h3.063l4.583,12.955h-2.936l-0.855-2.663h-4.771l-0.878,2.663h-2.832L29.533,64.638z M29.355,72.697h3.318
				L31.036,67.6L29.355,72.697z"/>
			<path d="M44.356,71.449c-0.047-0.357-0.167-0.68-0.361-0.967c-0.282-0.387-0.719-0.58-1.312-0.58
				c-0.846,0-1.425,0.419-1.736,1.257c-0.165,0.444-0.247,1.035-0.247,1.771c0,0.701,0.082,1.265,0.247,1.692
				c0.3,0.797,0.863,1.195,1.692,1.195c0.587,0,1.004-0.158,1.251-0.475c0.247-0.317,0.396-0.727,0.449-1.23h2.558
				c-0.059,0.762-0.334,1.482-0.827,2.162c-0.786,1.096-1.95,1.644-3.493,1.644s-2.677-0.457-3.405-1.371
				c-0.727-0.914-1.091-2.099-1.091-3.556c0-1.643,0.402-2.922,1.205-3.836c0.804-0.914,1.912-1.371,3.326-1.371
				c1.203,0,2.186,0.27,2.952,0.809c0.766,0.539,1.218,1.491,1.359,2.856H44.356z"/>
			<path d="M47.652,69.885v-1.784h1.336v-2.672h2.479v2.672h1.556v1.784h-1.556v5.062c0,0.393,0.05,0.637,0.149,0.734
				c0.099,0.097,0.404,0.145,0.914,0.145c0.076,0,0.157-0.001,0.242-0.004c0.085-0.003,0.168-0.007,0.25-0.013v1.872l-1.187,0.044
				c-1.184,0.041-1.992-0.164-2.426-0.615c-0.281-0.287-0.422-0.729-0.422-1.327v-5.897L47.652,69.885L47.652,69.885z"/>
			<path d="M62.62,76.421c-0.809,0.998-2.036,1.497-3.683,1.497s-2.874-0.499-3.683-1.497s-1.213-2.2-1.213-3.605
				c0-1.381,0.404-2.579,1.213-3.592c0.809-1.013,2.036-1.519,3.683-1.519s2.874,0.506,3.683,1.519
				c0.809,1.013,1.213,2.21,1.213,3.592C63.833,74.221,63.428,75.423,62.62,76.421z M60.616,75.037
				c0.393-0.521,0.589-1.261,0.589-2.221s-0.196-1.698-0.589-2.216c-0.393-0.518-0.955-0.777-1.688-0.777
				c-0.733,0-1.296,0.259-1.692,0.777s-0.593,1.256-0.593,2.216s0.198,1.7,0.593,2.221c0.396,0.521,0.959,0.781,1.692,0.781
				C59.661,75.818,60.223,75.557,60.616,75.037z"/>
			<path d="M70.947,67.789c0.032,0.003,0.104,0.007,0.215,0.013v2.566c-0.158-0.018-0.299-0.029-0.422-0.035
				c-0.123-0.006-0.223-0.009-0.299-0.009c-1.008,0-1.685,0.328-2.03,0.984c-0.193,0.369-0.29,0.938-0.29,1.705v4.579h-2.522v-9.58
				h2.391v1.67c0.387-0.639,0.724-1.075,1.011-1.31c0.469-0.393,1.078-0.589,1.828-0.589C70.875,67.784,70.915,67.786,70.947,67.789
				z"/>
			<path d="M74.573,74.534c0.053,0.445,0.168,0.762,0.344,0.949c0.312,0.334,0.889,0.501,1.731,0.501
				c0.495,0,0.888-0.073,1.179-0.22s0.437-0.366,0.437-0.659c0-0.281-0.117-0.495-0.352-0.642c-0.235-0.147-1.108-0.398-2.621-0.756
				c-1.088-0.27-1.855-0.606-2.301-1.011c-0.445-0.398-0.668-0.973-0.668-1.723c0-0.885,0.348-1.645,1.044-2.281
				c0.696-0.636,1.675-0.954,2.937-0.954c1.198,0,2.174,0.239,2.929,0.716s1.188,1.302,1.299,2.474h-2.505
				c-0.035-0.322-0.126-0.577-0.273-0.765c-0.276-0.34-0.747-0.51-1.411-0.51c-0.546,0-0.936,0.085-1.167,0.255
				c-0.231,0.17-0.348,0.369-0.348,0.598c0,0.287,0.124,0.495,0.37,0.624c0.247,0.135,1.119,0.366,2.615,0.694
				c0.998,0.234,1.746,0.589,2.244,1.063c0.492,0.48,0.738,1.081,0.738,1.802c0,0.949-0.354,1.724-1.062,2.325
				c-0.707,0.601-1.801,0.901-3.28,0.901c-1.509,0-2.623-0.318-3.342-0.954c-0.72-0.636-1.079-1.446-1.079-2.43h2.542V74.534z"/>
		</g>
		<g>
			<path d="M30.666,97.753c0.301,0.17,0.545,0.405,0.732,0.706v-3.047h1.693v8.625h-1.623v-0.885
				c-0.238,0.379-0.51,0.654-0.814,0.826c-0.304,0.172-0.684,0.258-1.137,0.258c-0.746,0-1.374-0.303-1.884-0.905
				c-0.51-0.603-0.765-1.378-0.765-2.323c0-1.09,0.251-1.947,0.753-2.572s1.173-0.938,2.013-0.938
				C30.021,97.498,30.365,97.583,30.666,97.753z M31.076,102.303c0.246-0.352,0.369-0.807,0.369-1.365
				c0-0.781-0.197-1.34-0.592-1.676c-0.242-0.203-0.523-0.305-0.844-0.305c-0.488,0-0.847,0.185-1.075,0.554
				c-0.228,0.369-0.343,0.827-0.343,1.374c0,0.59,0.116,1.062,0.349,1.415s0.585,0.53,1.058,0.53S30.83,102.654,31.076,102.303z"/>
			<path d="M38.157,97.501c0.021,0.002,0.069,0.005,0.144,0.009v1.711c-0.105-0.012-0.199-0.02-0.281-0.023
				c-0.082-0.003-0.148-0.006-0.199-0.006c-0.672,0-1.123,0.219-1.354,0.656c-0.129,0.246-0.193,0.625-0.193,1.137v3.053h-1.682
				V97.65h1.594v1.113c0.258-0.426,0.482-0.717,0.674-0.873c0.312-0.262,0.719-0.393,1.219-0.393
				C38.109,97.498,38.136,97.499,38.157,97.501z"/>
			<path d="M40.996,96.889h-1.693v-1.541h1.693V96.889z M39.303,97.65h1.693v6.387h-1.693V97.65z"/>
			<path d="M46.548,97.65h1.793l-2.306,6.387h-1.761l-2.291-6.387h1.875l1.33,4.711L46.548,97.65z"/>
			<path d="M53.449,97.78c0.446,0.2,0.813,0.515,1.104,0.945c0.261,0.379,0.431,0.819,0.509,1.32
				c0.045,0.293,0.063,0.716,0.055,1.268h-4.651c0.026,0.642,0.249,1.09,0.668,1.349c0.255,0.159,0.562,0.239,0.921,0.239
				c0.38,0,0.689-0.098,0.927-0.293c0.13-0.104,0.245-0.252,0.344-0.438h1.705c-0.045,0.379-0.251,0.765-0.619,1.154
				c-0.572,0.62-1.373,0.932-2.403,0.932c-0.85,0-1.6-0.262-2.25-0.786c-0.65-0.523-0.975-1.376-0.975-2.557
				c0-1.106,0.293-1.955,0.88-2.545c0.587-0.59,1.348-0.886,2.284-0.886C52.503,97.48,53.003,97.58,53.449,97.78z M50.951,99.222
				c-0.236,0.244-0.384,0.573-0.445,0.989h2.877c-0.03-0.443-0.179-0.78-0.445-1.009s-0.596-0.344-0.99-0.344
				C51.519,98.857,51.187,98.979,50.951,99.222z"/>
			<path d="M59.509,97.501c0.021,0.002,0.069,0.005,0.144,0.009v1.711c-0.105-0.012-0.199-0.02-0.281-0.023
				c-0.082-0.003-0.148-0.006-0.199-0.006c-0.672,0-1.123,0.219-1.354,0.656c-0.129,0.246-0.193,0.625-0.193,1.137v3.053h-1.682
				V97.65h1.594v1.113c0.258-0.426,0.482-0.717,0.674-0.873c0.312-0.262,0.719-0.393,1.219-0.393
				C59.461,97.498,59.487,97.499,59.509,97.501z"/>
			<path d="M61.926,101.998c0.035,0.297,0.112,0.508,0.229,0.633c0.208,0.223,0.593,0.334,1.154,0.334
				c0.33,0,0.591-0.049,0.786-0.146c0.195-0.096,0.292-0.243,0.292-0.438c0-0.188-0.078-0.33-0.235-0.428
				c-0.156-0.099-0.739-0.267-1.747-0.504c-0.726-0.181-1.237-0.404-1.534-0.674c-0.297-0.266-0.445-0.648-0.445-1.148
				c0-0.59,0.232-1.097,0.696-1.521s1.117-0.636,1.958-0.636c0.798,0,1.449,0.159,1.952,0.478c0.503,0.319,0.792,0.868,0.866,1.649
				h-1.67c-0.023-0.215-0.084-0.385-0.182-0.51c-0.184-0.227-0.498-0.34-0.94-0.34c-0.364,0-0.624,0.057-0.779,0.17
				c-0.155,0.113-0.232,0.246-0.232,0.398c0,0.191,0.082,0.33,0.247,0.416c0.164,0.09,0.745,0.244,1.743,0.463
				c0.666,0.156,1.164,0.393,1.496,0.709c0.328,0.321,0.492,0.721,0.492,1.202c0,0.633-0.236,1.148-0.708,1.549
				c-0.472,0.402-1.201,0.602-2.187,0.602c-1.006,0-1.749-0.212-2.228-0.636c-0.479-0.425-0.719-0.964-0.719-1.62H61.926z"/>
		</g>
		<g>
			<circle fill="none" stroke="#000000" stroke-width="3" stroke-miterlimit="10" cx="45.906" cy="164.813" r="14.687"/>
			<circle cx="45.891" cy="164.883" r="7.025"/>
			<line fill="none" stroke="#000000" stroke-width="7" stroke-miterlimit="10" x1="46.054" y1="164.852" x2="45.452" y2="150.17"/>
			<line fill="none" stroke="#000000" stroke-width="7" stroke-miterlimit="10" x1="45.86" y1="164.82" x2="33.911" y2="172.404"/>
			<line fill="none" stroke="#000000" stroke-width="7" stroke-miterlimit="10" x1="45.86" y1="164.82" x2="58.383" y2="172.561"/>
			<g>
				<path fill="none" stroke="#000000" stroke-miterlimit="10" d="M56.978,134.559c0,1.912-0.998,5.666-2.552,7.785
					c-2.25,4.102-5.545,5.758-8.623,5.758c-3.103,0-6.375-1.691-8.507-5.758c-1.589-2.119-2.668-5.855-2.668-7.785
					c0-6.172,5.002-11.175,11.175-11.175C51.974,123.384,56.978,128.387,56.978,134.559z"/>
				<path d="M45.803,123.384c0,0,13.25-5.27,13.074,22.175l-4.732-2.728c0,0-1.697-7.41-2.05-12.354
					c-1.131,2.295-1.342,7.063-1.342,7.063s-3.638-2.261-4.95-5.363c-0.872,1.238,0.5,3.565,0.5,3.565s-2.755-3.254-3.109-5.479
					c-0.371,1.53,0.248,3.531,0.248,3.531s-4.203-2.507-3.674-7.24c0,0-1.095,3.678-3.038,7.982c-0.246,5.867,1.095,8.73,1.095,8.73
					l-2.331,2.465C29.137,120.551,45.803,123.384,45.803,123.384"/>
			</g>
			<line fill="none" stroke="#000000" stroke-miterlimit="10" x1="67.869" y1="157.693" x2="67.869" y2="157.693"/>
			<path fill="#FFFFFF" stroke="#000000" stroke-miterlimit="10" d="M62.576,167.5h0.088c0.99,0,0.835-1.941,0.835-2.932v-3.479
				c0-0.99-0.305-1.926-1.294-1.926l-2.573-0.285c-0.389-0.04-0.615,0.246-0.656,0.635l0,0c-0.039,0.389,0.301,0.741,0.688,0.78
				l1.215,0.024l-0.106,0.182h-2.882c-0.29,0-0.501,0.355-0.501,0.646l0,0c0,0.289,0.094,0.6,0.384,0.6l2.726,0.095v0.283
				l-3.572,0.062c-0.29,0-0.453,0.295-0.453,0.584l0,0c0,0.291,0.128,0.518,0.417,0.518l3.608-0.014v0.547l-2.725-0.012
				c-0.291,0-0.454,0.224-0.454,0.514l0,0c0,0.29,0.27,0.525,0.56,0.525l2.908,0.002l0.163,0.383l-2.474-0.012
				c-0.29,0-0.522,0.225-0.522,0.514l0,0c0,0.291,0.236,1.096,0.526,1.096l3.406,0.672C61.888,167.5,62.332,167.5,62.576,167.5z"/>
			<path fill="#FFFFFF" stroke="#000000" stroke-miterlimit="10" d="M28.474,165.5h-0.089c-0.989,0-1.885-1.354-1.885-2.344v-3.479
				c0-0.989,0.83-1.926,1.82-1.926l2.834-0.285c0.388-0.04,0.748,0.246,0.787,0.634l0,0c0.04,0.389-0.235,0.741-0.623,0.781
				l-1.183,0.135l0.129,0.291l2.887,0.002c0.29,0,0.505,0.246,0.505,0.534l0,0c0,0.29-0.618,0.544-0.908,0.544l-3.25,0.041v0.281
				l4.098,0.061c0.29,0,0.716,0.295,0.716,0.586l0,0c0,0.289-0.523,0.516-0.812,0.516l-4.002-0.014v0.547l3.25-0.012
				c0.29,0,0.717,0.225,0.716,0.515l0,0c0,0.29-0.14,0.524-0.429,0.524l-2.842,0.002l-0.129,0.383l2.49-0.012
				c0.29,0,0.53,0.225,0.53,0.514l0,0c0,0.291-0.231,0.803-0.521,0.803l-3.402,0.378C29.163,165.5,28.719,165.5,28.474,165.5z"/>
		</g>
		<g>
			<path d="M101.714,97.65h1.793l-2.306,6.387H99.44l-2.291-6.387h1.875l1.33,4.711L101.714,97.65z"/>
			<path d="M108.615,97.78c0.446,0.2,0.813,0.515,1.104,0.945c0.261,0.379,0.431,0.819,0.509,1.32
				c0.045,0.293,0.063,0.716,0.055,1.268h-4.651c0.026,0.642,0.249,1.09,0.668,1.349c0.255,0.159,0.562,0.239,0.921,0.239
				c0.38,0,0.689-0.098,0.927-0.293c0.13-0.104,0.245-0.252,0.344-0.438h1.705c-0.045,0.379-0.251,0.765-0.619,1.154
				c-0.572,0.62-1.373,0.932-2.403,0.932c-0.85,0-1.6-0.262-2.25-0.786c-0.65-0.523-0.975-1.376-0.975-2.557
				c0-1.106,0.293-1.955,0.88-2.545c0.587-0.59,1.348-0.886,2.284-0.886C107.669,97.48,108.169,97.58,108.615,97.78z
				 M106.117,99.222c-0.236,0.244-0.384,0.573-0.445,0.989h2.877c-0.03-0.443-0.179-0.78-0.445-1.009s-0.596-0.344-0.99-0.344
				C106.685,98.857,106.353,98.979,106.117,99.222z"/>
			<path d="M115.717,97.686c0.321,0.137,0.584,0.346,0.791,0.628c0.175,0.238,0.282,0.484,0.321,0.736s0.059,0.664,0.059,1.234
				v3.753h-1.705v-3.889c0-0.344-0.058-0.622-0.174-0.833c-0.151-0.297-0.438-0.446-0.861-0.446c-0.438,0-0.771,0.147-0.998,0.443
				c-0.227,0.295-0.34,0.717-0.34,1.264v3.461h-1.67V95.43h1.67v3.047c0.241-0.371,0.52-0.63,0.837-0.776s0.651-0.22,1.001-0.22
				C115.039,97.48,115.396,97.549,115.717,97.686z"/>
			<path d="M120.174,96.889h-1.693v-1.541h1.693V96.889z M118.48,97.65h1.693v6.387h-1.693V97.65z"/>
			<path d="M125.611,99.941c-0.031-0.238-0.112-0.453-0.241-0.645c-0.188-0.258-0.48-0.387-0.875-0.387
				c-0.564,0-0.95,0.279-1.157,0.838c-0.11,0.296-0.165,0.689-0.165,1.181c0,0.468,0.055,0.843,0.165,1.128
				c0.2,0.53,0.576,0.797,1.127,0.797c0.392,0,0.67-0.105,0.834-0.316c0.165-0.211,0.265-0.484,0.3-0.82h1.705
				c-0.039,0.508-0.223,0.988-0.551,1.441c-0.524,0.73-1.3,1.096-2.329,1.096c-1.029,0-1.785-0.305-2.27-0.914
				c-0.485-0.609-0.728-1.398-0.728-2.37c0-1.096,0.268-1.948,0.804-2.558c0.536-0.609,1.274-0.914,2.217-0.914
				c0.802,0,1.458,0.18,1.968,0.539c0.51,0.359,0.812,0.994,0.906,1.904H125.611L125.611,99.941z"/>
			<path d="M130.17,104.037h-1.67V95.4h1.67V104.037z"/>
			<path d="M135.96,97.78c0.446,0.2,0.813,0.515,1.104,0.945c0.261,0.379,0.431,0.819,0.509,1.32
				c0.045,0.293,0.063,0.716,0.055,1.268h-4.651c0.026,0.642,0.249,1.09,0.668,1.349c0.255,0.159,0.562,0.239,0.921,0.239
				c0.38,0,0.689-0.098,0.927-0.293c0.13-0.104,0.245-0.252,0.344-0.438h1.705c-0.045,0.379-0.251,0.765-0.619,1.154
				c-0.572,0.62-1.373,0.932-2.403,0.932c-0.85,0-1.6-0.262-2.25-0.786c-0.65-0.523-0.975-1.376-0.975-2.557
				c0-1.106,0.293-1.955,0.88-2.545c0.587-0.59,1.348-0.886,2.284-0.886C135.015,97.48,135.515,97.58,135.96,97.78z M133.462,99.222
				c-0.236,0.244-0.384,0.573-0.445,0.989h2.877c-0.03-0.443-0.179-0.78-0.445-1.009c-0.266-0.229-0.596-0.344-0.99-0.344
				C134.031,98.857,133.698,98.979,133.462,99.222z"/>
			<path d="M139.768,101.998c0.035,0.297,0.112,0.508,0.229,0.633c0.208,0.223,0.593,0.334,1.154,0.334
				c0.33,0,0.591-0.049,0.786-0.146c0.195-0.096,0.292-0.243,0.292-0.438c0-0.188-0.078-0.33-0.235-0.428
				c-0.156-0.099-0.739-0.267-1.747-0.504c-0.726-0.181-1.237-0.404-1.534-0.674c-0.297-0.266-0.445-0.648-0.445-1.148
				c0-0.59,0.232-1.097,0.696-1.521c0.464-0.424,1.117-0.636,1.958-0.636c0.798,0,1.449,0.159,1.952,0.478
				c0.503,0.319,0.792,0.868,0.866,1.649h-1.67c-0.023-0.215-0.084-0.385-0.182-0.51c-0.184-0.227-0.498-0.34-0.94-0.34
				c-0.364,0-0.624,0.057-0.779,0.17c-0.155,0.113-0.232,0.246-0.232,0.398c0,0.191,0.082,0.33,0.247,0.416
				c0.164,0.09,0.745,0.244,1.743,0.463c0.666,0.156,1.164,0.393,1.496,0.709c0.328,0.321,0.492,0.721,0.492,1.202
				c0,0.633-0.236,1.148-0.708,1.549c-0.472,0.402-1.201,0.602-2.187,0.602c-1.006,0-1.749-0.212-2.228-0.636
				c-0.479-0.425-0.719-0.964-0.719-1.62H139.768z"/>
		</g>
		<g>
			<g>
				<circle cx="100.497" cy="173.627" r="1.677"/>
				<circle cx="117.141" cy="173.627" r="1.677"/>
				<circle cx="121.897" cy="173.627" r="1.677"/>
				<circle cx="146.863" cy="173.627" r="1.677"/>
				<circle cx="151.449" cy="173.627" r="1.677"/>
				<rect x="114.5" y="160.5" fill="none" stroke="#000000" stroke-miterlimit="10" width="43" height="11"/>
				<polygon points="110,164.208 104.251,166.246 102.961,166.6 102.293,169.027 98,169.699 98,169.869 97.958,170.527 97.992,173 
					98.332,173 97,173 97,174 98.332,174 98.82,171.27 101.672,170.654 103.05,172.328 110,172.305 				"/>
				<polyline fill="none" stroke="#000000" stroke-miterlimit="10" points="102,173.5 106.5,173.5 106.5,175.5 110.39,175.5 
					110.475,173.5 114.806,173.5 115.464,172.5 111.918,172.5 111.692,166.387 111.463,163.557 111.013,164.052 111.183,166.5 
					110.899,166.5 110.667,172.293 				"/>
				<polyline fill="none" stroke="#000000" stroke-miterlimit="10" points="127.837,171.886 129.05,172.441 143.979,172.677 
					144.188,173.5 145,173.5 				"/>
				<polyline fill="none" stroke="#000000" stroke-miterlimit="10" points="156.5,172 156.5,172.5 154.5,172.5 154.5,172.756 
					153.5,172.836 153.5,174.5 153,174.5 				"/>
			</g>
			<g>
				<circle cx="155.037" cy="154.627" r="1.677"/>
				<circle cx="138.393" cy="154.627" r="1.677"/>
				<circle cx="133.637" cy="154.627" r="1.677"/>
				<circle cx="108.671" cy="154.627" r="1.677"/>
				<circle cx="104.085" cy="154.627" r="1.677"/>
				<rect x="97.5" y="141.5" fill="none" stroke="#000000" stroke-miterlimit="10" width="43" height="11"/>
				<polygon points="145,145.208 151.016,147.246 152.439,147.6 152.908,150.027 157,150.699 157,150.869 157.309,151.527 
					157.542,154 157.203,154 158,154 158,155 157.203,155 156.714,152.27 153.862,151.654 152.217,153.328 145,153.305 				"/>
				<polyline fill="none" stroke="#000000" stroke-miterlimit="10" points="153,154.5 148.5,154.5 148.5,156.5 145.144,156.5 
					145.059,154.5 140.729,154.5 140.07,153.5 143.616,153.5 143.842,147.387 144.071,144.557 144.521,145.052 144.352,147.5 
					144.635,147.5 144.6,153.293 				"/>
				<polyline fill="none" stroke="#000000" stroke-miterlimit="10" points="127.43,152.886 126.352,153.441 111.489,153.677 
					111.346,154.5 110,154.5 				"/>
				<polyline fill="none" stroke="#000000" stroke-miterlimit="10" points="98.5,153 98.5,153.5 100.5,153.5 100.5,153.756 
					101.5,153.836 101.5,155.5 102,155.5 				"/>
			</g>
			<g>
				<circle cx="100.497" cy="135.627" r="1.677"/>
				<circle cx="117.141" cy="135.627" r="1.677"/>
				<circle cx="121.897" cy="135.627" r="1.677"/>
				<circle cx="146.863" cy="135.627" r="1.677"/>
				<circle cx="151.449" cy="135.627" r="1.677"/>
				<rect x="114.5" y="122.5" fill="none" stroke="#000000" stroke-miterlimit="10" width="43" height="11"/>
				<polygon points="110,126.208 104.251,128.246 102.961,128.6 102.293,131.027 98,131.699 98,131.869 97.958,132.527 97.992,135 
					98.332,135 97,135 97,136 98.332,136 98.82,133.27 101.672,132.654 103.05,134.328 110,134.305 				"/>
				<polyline fill="none" stroke="#000000" stroke-miterlimit="10" points="102,135.5 106.5,135.5 106.5,137.5 110.39,137.5 
					110.475,135.5 114.806,135.5 115.464,134.5 111.918,134.5 111.692,128.387 111.463,125.557 111.013,126.052 111.183,128.5 
					110.899,128.5 110.667,134.293 				"/>
				<polyline fill="none" stroke="#000000" stroke-miterlimit="10" points="127.837,133.886 129.05,134.441 143.979,134.677 
					144.188,135.5 145,135.5 				"/>
				<polyline fill="none" stroke="#000000" stroke-miterlimit="10" points="156.5,134 156.5,134.5 154.5,134.5 154.5,134.756 
					153.5,134.836 153.5,136.5 153,136.5 				"/>
			</g>
		</g>
	</g>
</g>
</svg>
